<svg width="27" height="27" viewBox="0 0 27 27" fill="none" xmlns="http://www.w3.org/2000/svg">
<path d="M5.88875 8.88888H21.4443C21.739 8.88888 22.0216 8.77182 22.23 8.56344C22.4384 8.35507 22.5554 8.07245 22.5554 7.77777C22.5554 7.48308 22.4384 7.20047 22.23 6.99209C22.0216 6.78372 21.739 6.66666 21.4443 6.66666H5.88875C5.59407 6.66666 5.31145 6.78372 5.10308 6.99209C4.89471 7.20047 4.77764 7.48308 4.77764 7.77777C4.77764 8.07245 4.89471 8.35507 5.10308 8.56344C5.31145 8.77182 5.59407 8.88888 5.88875 8.88888ZM23.6665 12.2222H3.66653C3.37185 12.2222 3.08923 12.3393 2.88086 12.5476C2.67248 12.756 2.55542 13.0386 2.55542 13.3333C2.55542 13.628 2.67248 13.9106 2.88086 14.119C3.08923 14.3274 3.37185 14.4444 3.66653 14.4444H23.6665C23.9612 14.4444 24.2438 14.3274 24.4522 14.119C24.6606 13.9106 24.7776 13.628 24.7776 13.3333C24.7776 13.0386 24.6606 12.756 24.4522 12.5476C24.2438 12.3393 23.9612 12.2222 23.6665 12.2222ZM21.4443 17.7778H5.88875C5.59407 17.7778 5.31145 17.8948 5.10308 18.1032C4.89471 18.3116 4.77764 18.5942 4.77764 18.8889C4.77764 19.1836 4.89471 19.4662 5.10308 19.6746C5.31145 19.8829 5.59407 20 5.88875 20H21.4443C21.739 20 22.0216 19.8829 22.23 19.6746C22.4384 19.4662 22.5554 19.1836 22.5554 18.8889C22.5554 18.5942 22.4384 18.3116 22.23 18.1032C22.0216 17.8948 21.739 17.7778 21.4443 17.7778Z" fill="white"/>
</svg>
