<svg width="30" height="30" viewBox="0 0 30 30" fill="none" xmlns="http://www.w3.org/2000/svg">
<path d="M16.8782 14.9989L22.606 9.28357C22.8568 9.03271 22.9977 8.69246 22.9977 8.33769C22.9977 7.98291 22.8568 7.64266 22.606 7.3918C22.3552 7.14093 22.015 7 21.6602 7C21.3055 7 20.9653 7.14093 20.7145 7.3918L15 13.1204L9.28552 7.3918C9.03469 7.14093 8.6945 7 8.33977 7C7.98504 7 7.64485 7.14093 7.39402 7.3918C7.14319 7.64266 7.00227 7.98291 7.00227 8.33769C7.00227 8.69246 7.14319 9.03271 7.39402 9.28357L13.1218 14.9989L7.39402 20.7142C7.26917 20.838 7.17007 20.9853 7.10244 21.1477C7.03482 21.31 7 21.4842 7 21.66C7 21.8359 7.03482 22.01 7.10244 22.1724C7.17007 22.3347 7.26917 22.4821 7.39402 22.6059C7.51785 22.7308 7.66517 22.8299 7.8275 22.8975C7.98982 22.9652 8.16392 23 8.33977 23C8.51562 23 8.68972 22.9652 8.85204 22.8975C9.01437 22.8299 9.16169 22.7308 9.28552 22.6059L15 16.8773L20.7145 22.6059C20.8383 22.7308 20.9856 22.8299 21.148 22.8975C21.3103 22.9652 21.4844 23 21.6602 23C21.8361 23 22.0102 22.9652 22.1725 22.8975C22.3348 22.8299 22.4822 22.7308 22.606 22.6059C22.7308 22.4821 22.8299 22.3347 22.8976 22.1724C22.9652 22.01 23 21.8359 23 21.66C23 21.4842 22.9652 21.31 22.8976 21.1477C22.8299 20.9853 22.7308 20.838 22.606 20.7142L16.8782 14.9989Z" fill="#8E8E8E"/>
</svg>
