<svg width="24" height="24" viewBox="0 0 24 24" fill="none" xmlns="http://www.w3.org/2000/svg">
<path d="M12.0002 23.999L11.2962 23.404C9.09418 21.541 1.90918 15.076 1.90918 10.091C1.90918 4.527 6.43618 0 12.0002 0C17.5642 0 22.0912 4.527 22.0912 10.091C22.0912 15.076 14.9062 21.541 12.7042 23.404L12.0002 23.999ZM12.0002 1C6.98718 1 2.90918 5.078 2.90918 10.091C2.90918 14.763 10.4332 21.364 11.9412 22.641L12.0002 22.691L12.0592 22.641C13.5672 21.365 21.0912 14.763 21.0912 10.091C21.0912 5.078 17.0132 1 12.0002 1Z" fill="#EC813F"/>
<path d="M12 14C9.794 14 8 12.206 8 10C8 7.794 9.794 6 12 6C14.206 6 16 7.794 16 10C16 12.206 14.206 14 12 14ZM12 7C10.346 7 9 8.346 9 10C9 11.654 10.346 13 12 13C13.654 13 15 11.654 15 10C15 8.346 13.654 7 12 7Z" fill="#EC813F"/>
</svg>
