<svg width="16" height="16" viewBox="0 0 16 16" fill="none" xmlns="http://www.w3.org/2000/svg">
<path d="M13 1.3335H3C2.20462 1.33438 1.44207 1.65073 0.879654 2.21315C0.317236 2.77557 0.000882284 3.53812 0 4.3335L0 11.6668C0 13.3208 1.346 14.6668 3 14.6668H13C14.654 14.6668 16 13.3208 16 11.6668V4.3335C16 2.6795 14.654 1.3335 13 1.3335ZM3 2.00016H13C13.3432 2.00143 13.6818 2.0788 13.9914 2.22671C14.301 2.37461 14.574 2.58937 14.7907 2.8555L9.66333 7.9835C9.44444 8.20129 9.18473 8.37376 8.89908 8.49101C8.61343 8.60827 8.30745 8.66802 7.99867 8.66683C7.38933 8.6555 6.78133 8.42683 6.33733 7.9835L1.20933 2.8555C1.42594 2.58933 1.69892 2.37455 2.00857 2.22664C2.31822 2.07873 2.65684 2.00138 3 2.00016ZM15.3333 11.6668C15.3333 12.9535 14.2867 14.0002 13 14.0002H3C1.71333 14.0002 0.666667 12.9535 0.666667 11.6668V4.3335C0.666667 4.0155 0.731333 3.71283 0.847333 3.43616L5.866 8.45483C6.43333 9.02216 7.186 9.3335 7.984 9.3335C8.782 9.3335 9.56733 9.02216 10.1347 8.45483L15.1533 3.43616C15.2693 3.71283 15.334 4.0155 15.334 4.3335L15.3333 11.6668Z" fill="#8E8E8E"/>
</svg>
