<svg width="24" height="24" viewBox="0 0 24 24" fill="none" xmlns="http://www.w3.org/2000/svg">
<path d="M19.5 2H4.5C3.30693 2.00132 2.16311 2.47585 1.31948 3.31948C0.475854 4.16311 0.00132343 5.30693 0 6.5L0 17.5C0 19.981 2.019 22 4.5 22H19.5C21.981 22 24 19.981 24 17.5V6.5C24 4.019 21.981 2 19.5 2ZM4.5 3H19.5C20.0147 3.0019 20.5226 3.11796 20.9871 3.33982C21.4516 3.56168 21.861 3.88381 22.186 4.283L14.495 11.975C14.1667 12.3017 13.7771 12.5604 13.3486 12.7363C12.9201 12.9122 12.4612 13.0018 11.998 13C11.084 12.983 10.172 12.64 9.506 11.975L1.814 4.283C2.13891 3.88376 2.54837 3.56159 3.01285 3.33972C3.47733 3.11786 3.98526 3.00183 4.5 3ZM23 17.5C23 19.43 21.43 21 19.5 21H4.5C2.57 21 1 19.43 1 17.5V6.5C1 6.023 1.097 5.569 1.271 5.154L8.799 12.682C9.65 13.533 10.779 14 11.976 14C13.173 14 14.351 13.533 15.202 12.682L22.73 5.154C22.904 5.569 23.001 6.023 23.001 6.5L23 17.5Z" fill="#EC813F"/>
</svg>
