<svg width="16" height="16" viewBox="0 0 16 16" fill="none" xmlns="http://www.w3.org/2000/svg">
<g clip-path="url(#clip0_2114_656)">
<path d="M14.8468 1.17997L14.1001 0.526634C13.4201 -0.153366 12.2668 -0.186699 11.5334 0.559967L10.2868 2.1933C10.1204 2.3596 9.98833 2.55706 9.89826 2.7744C9.80819 2.99174 9.76182 3.2247 9.76182 3.45997C9.76182 3.69523 9.80819 3.92819 9.89826 4.14554C9.98833 4.36288 10.1204 4.56034 10.2868 4.72663L11.2801 5.74663C10.2001 8.27997 8.20677 10.28 5.75344 11.28L4.73344 10.2866C4.39344 9.94663 3.94677 9.75997 3.46677 9.75997C2.98677 9.75997 2.54011 9.94663 2.23344 10.26L0.540106 11.5666C-0.159894 12.2666 -0.159894 13.4066 0.526773 14.0866L1.20677 14.8666C1.94011 15.6 2.92677 16.0066 4.00011 16.0066C9.16677 16.0066 16.0134 9.1533 16.0134 3.9933C16.0134 2.92663 15.6068 1.9333 14.8601 1.18663L14.8468 1.17997ZM3.98677 15.3333C3.09344 15.3333 2.27344 15 1.68011 14.4066L1.00011 13.62C0.560106 13.18 0.560106 12.4666 0.966773 12.0533L2.66011 10.7466C2.87344 10.5333 3.15344 10.4133 3.46011 10.4133C3.76677 10.4133 4.04677 10.5333 4.26011 10.7466L5.44011 11.9C5.53344 11.9933 5.66677 12.02 5.79344 11.9733C8.57344 10.9133 10.8334 8.6533 11.9868 5.78663C12.0334 5.66663 12.0068 5.52663 11.9134 5.42663L10.7601 4.24663C10.3201 3.80663 10.3201 3.0933 10.7868 2.61997L12.0334 0.986634C12.4734 0.546634 13.1868 0.546634 13.6468 0.999967L14.3934 1.6533C15.0001 2.25997 15.3334 3.07997 15.3334 3.9733C15.3334 8.74663 8.76011 15.32 3.98677 15.32V15.3333Z" fill="#8E8E8E"/>
</g>
<defs>
<clipPath id="clip0_2114_656">
<rect width="16" height="16" fill="white"/>
</clipPath>
</defs>
</svg>
