<svg width="24" height="24" viewBox="0 0 24 24" fill="none" xmlns="http://www.w3.org/2000/svg">
<g clip-path="url(#clip0_2114_638)">
<path d="M22.27 1.7702L21.15 0.790195C20.13 -0.229805 18.4 -0.279805 17.3 0.840195L15.43 3.2902C15.1804 3.53964 14.9824 3.83583 14.8473 4.16184C14.7122 4.48786 14.6426 4.8373 14.6426 5.1902C14.6426 5.5431 14.7122 5.89254 14.8473 6.21855C14.9824 6.54456 15.1804 6.84075 15.43 7.0902L16.92 8.6202C15.3 12.4202 12.31 15.4202 8.63004 16.9202L7.10004 15.4302C6.59004 14.9202 5.92004 14.6402 5.20004 14.6402C4.48004 14.6402 3.81004 14.9202 3.35004 15.3902L0.810037 17.3502C-0.239962 18.4002 -0.239962 20.1102 0.790038 21.1302L1.81004 22.3002C2.91004 23.4002 4.39004 24.0102 6.00004 24.0102C13.75 24.0102 24.02 13.7302 24.02 5.9902C24.02 4.3902 23.41 2.9002 22.29 1.7802L22.27 1.7702ZM5.98004 23.0002C4.64004 23.0002 3.41004 22.5002 2.52004 21.6102L1.50004 20.4302C0.840038 19.7702 0.840038 18.7002 1.45004 18.0802L3.99004 16.1202C4.31004 15.8002 4.73004 15.6202 5.19004 15.6202C5.65004 15.6202 6.07004 15.8002 6.39004 16.1202L8.16004 17.8502C8.30004 17.9902 8.50004 18.0302 8.69004 17.9602C12.86 16.3702 16.25 12.9802 17.98 8.6802C18.05 8.5002 18.01 8.2902 17.87 8.1402L16.14 6.3702C15.48 5.7102 15.48 4.6402 16.18 3.9302L18.05 1.4802C18.71 0.820195 19.78 0.820195 20.47 1.5002L21.59 2.4802C22.5 3.3902 23 4.6202 23 5.9602C23 13.1202 13.14 22.9802 5.98004 22.9802V23.0002Z" fill="#EC813F"/>
</g>
<defs>
<clipPath id="clip0_2114_638">
<rect width="24" height="24" fill="white"/>
</clipPath>
</defs>
</svg>
