<svg width="46" height="46" viewBox="0 0 46 46" fill="none" xmlns="http://www.w3.org/2000/svg">
<g clip-path="url(#clip0_2114_556)">
<path d="M4.89125 13.6486L3.52083 12.3107L8.05375 7.66667H9.58325V28.75H7.66658V10.8081L4.89125 13.6486ZM30.6666 14.375V6.70833C30.6666 3.00917 33.6758 0 37.3749 0C41.0741 0 44.0832 3.00917 44.0832 6.70833V14.375C44.0832 18.0742 41.0741 21.0833 37.3749 21.0833C33.6758 21.0833 30.6666 18.0742 30.6666 14.375ZM32.5832 14.375C32.5832 17.0162 34.7318 19.1667 37.3749 19.1667C40.018 19.1667 42.1666 17.0162 42.1666 14.375V6.70833C42.1666 4.06717 40.018 1.91667 37.3749 1.91667C34.7318 1.91667 32.5832 4.06717 32.5832 6.70833V14.375ZM13.4166 18.2083V10.5417C13.4166 6.8425 16.4257 3.83333 20.1249 3.83333C23.8241 3.83333 26.8332 6.8425 26.8332 10.5417V18.2083C26.8332 21.9075 23.8241 24.9167 20.1249 24.9167C16.4257 24.9167 13.4166 21.9075 13.4166 18.2083ZM15.3332 18.2083C15.3332 20.8495 17.4818 23 20.1249 23C22.768 23 24.9166 20.8495 24.9166 18.2083V10.5417C24.9166 7.9005 22.768 5.75 20.1249 5.75C17.4818 5.75 15.3332 7.9005 15.3332 10.5417V18.2083ZM45.3195 26.772L0.277832 36.5125L0.682249 38.387L45.7239 28.6465L45.3195 26.772ZM45.3866 37.4574L17.0314 44.1102L17.4703 45.977L45.8255 39.3242L45.3866 37.4574Z" fill="#EC813F"/>
</g>
<defs>
<clipPath id="clip0_2114_556">
<rect width="46" height="46" fill="white"/>
</clipPath>
</defs>
</svg>
