<svg width="46" height="46" viewBox="0 0 46 46" fill="none" xmlns="http://www.w3.org/2000/svg">
<path d="M28.75 6.70817C28.75 4.067 26.6014 1.9165 23.9583 1.9165H4.79167C3.5213 1.91803 2.30341 2.42335 1.40513 3.32163C0.506845 4.21991 0.0015217 5.43781 0 6.70817L0 30.6665H28.75V6.70817ZM26.8333 28.7498H1.91667V6.70817C1.91667 5.12309 3.20658 3.83317 4.79167 3.83317H23.9583C25.5434 3.83317 26.8333 5.12309 26.8333 6.70817V28.7498ZM7.66667 7.6665H9.58333V24.9165H7.66667V7.6665ZM19.1667 7.6665H21.0833V24.9165H19.1667V7.6665ZM13.4167 7.6665H15.3333V24.9165H13.4167V7.6665ZM46 25.2021C46 24.2744 45.8524 23.3563 45.5592 22.4747L42.9927 14.7754C42.6746 13.8214 42.0643 12.9917 41.2483 12.4038C40.4323 11.8159 39.4521 11.4997 38.4464 11.4998H32.5833V34.4998H0V38.3332C0.00095127 39.568 0.399412 40.7698 1.13642 41.7606C1.87343 42.7514 2.90982 43.4786 4.09224 43.8346C5.27466 44.1906 6.54027 44.1565 7.70181 43.7373C8.86334 43.3182 9.85908 42.5362 10.5417 41.5072C11.2243 42.5362 12.22 43.3182 13.3815 43.7373C14.5431 44.1565 15.8087 44.1906 16.9911 43.8346C18.1735 43.4786 19.2099 42.7514 19.9469 41.7606C20.6839 40.7698 21.0824 39.568 21.0833 38.3332V36.4165H32.5833V38.3332C32.5833 41.5033 35.1632 44.0832 38.3333 44.0832C41.5035 44.0832 44.0833 41.5033 44.0833 38.3332V36.4165H46V25.2021ZM38.4464 13.4165C39.6846 13.4165 40.7828 14.2062 41.1738 15.383L43.7134 22.9998H34.5019V13.4165H38.4464ZM5.75 42.1665C3.63592 42.1665 1.91667 40.4473 1.91667 38.3332V36.4165H9.58333V38.3332C9.58333 40.4473 7.86408 42.1665 5.75 42.1665ZM19.1667 38.3332C19.1667 40.4473 17.4474 42.1665 15.3333 42.1665C13.2192 42.1665 11.5 40.4473 11.5 38.3332V36.4165H19.1667V38.3332ZM42.1667 38.3332C42.1667 40.4473 40.4474 42.1665 38.3333 42.1665C36.2192 42.1665 34.5 40.4473 34.5 38.3332V36.4165H42.1667V38.3332ZM44.0833 34.4998H34.5V24.9165H44.0776C44.0814 25.0123 44.0833 25.1063 44.0833 25.2021V34.4998Z" fill="#EC813F"/>
</svg>
