<svg width="46" height="46" viewBox="0 0 46 46" fill="none" xmlns="http://www.w3.org/2000/svg">
<g clip-path="url(#clip0_2114_570)">
<path d="M44.8942 34.6896L38.2644 28.2707C38.2681 27.8518 38.2283 27.4336 38.1456 27.0229C37.9156 26.0128 38.3794 24.9376 39.2975 24.3453C41.0033 23.2547 42.1457 21.2384 42.1131 19.1703C42.1208 18.1445 41.8661 17.1337 41.3733 16.234C40.8786 15.3239 40.1644 14.5517 39.2956 13.9877C38.3775 13.3954 37.9156 12.3202 38.1437 11.312C38.3773 10.2789 38.3417 9.20316 38.0402 8.18783C37.7556 7.21142 37.2293 6.32259 36.51 5.60361C35.7907 4.88463 34.9016 4.35876 33.9251 4.07466C32.9108 3.77529 31.837 3.73902 30.8048 3.96924C29.8004 4.20116 28.7213 3.73733 28.1291 2.81924C27.5641 1.95242 26.7929 1.23922 25.8847 0.743494C24.9927 0.254113 23.9916 -0.00244141 22.9742 -0.00244141C21.9568 -0.00244141 20.9558 0.254113 20.0637 0.743494C19.1546 1.23884 18.3832 1.9529 17.8193 2.82116C17.2271 3.73924 16.1518 4.20308 15.1437 3.97116C14.1115 3.74102 13.0377 3.77729 12.0233 4.07658C11.0465 4.36069 10.1572 4.8868 9.43782 5.60615C8.71847 6.32551 8.19236 7.21482 7.90825 8.19166C7.60805 9.20649 7.57176 10.2811 7.80283 11.3139C8.03283 12.3221 7.57091 13.3973 6.65283 13.9896C4.94316 15.0821 3.80658 17.0927 3.83725 19.1646C3.80658 21.2461 4.93933 23.2509 6.65475 24.3472C7.57283 24.9395 8.03475 26.0147 7.80475 27.0229C7.71801 27.4486 7.67689 27.8823 7.68208 28.3167L1.10025 34.6896C0.084413 35.669 -0.260587 37.1065 0.199413 38.4405C0.659413 39.7745 1.81708 40.6945 3.222 40.8402L5.3955 41.0644L5.65233 42.9159C5.867 44.6678 7.45783 46.0305 9.2135 46.0113C10.1316 46.0113 11.0286 45.6548 11.7109 44.9897L19.6536 37.2924C20.587 38.0265 21.8194 38.3255 22.979 38.337C24.1482 38.3255 25.3921 38.0188 26.3293 37.2733L34.2873 44.9859C34.9716 45.6548 35.8686 46.0113 36.7886 46.0113C38.5423 46.0286 40.1332 44.6678 40.3478 42.9159L40.6047 41.0644L42.7782 40.8402C44.1831 40.6945 45.3408 39.7745 45.8008 38.4405C46.2607 37.1065 45.9158 35.669 44.8999 34.6896H44.8942ZM10.3673 43.6155C10.1486 43.8352 9.87186 43.9881 9.56944 44.0563C9.26703 44.1245 8.95145 44.1053 8.65958 44.0008C8.36483 43.9042 8.10353 43.7259 7.90607 43.4867C7.7086 43.2475 7.58308 42.9572 7.54408 42.6495L7.18375 40.0543C7.15409 39.8419 7.05419 39.6456 6.89995 39.4965C6.74572 39.3475 6.54604 39.2544 6.33275 39.2321L3.41175 38.9312C3.0936 38.9031 2.7907 38.7822 2.54061 38.5836C2.29053 38.385 2.10426 38.1173 2.00491 37.8138C1.89666 37.5131 1.87891 37.1872 1.95385 36.8766C2.0288 36.5659 2.19315 36.284 2.42658 36.0657L8.09416 30.5783C8.75733 32.3378 10.2025 33.7351 12.0214 34.2564C13.0354 34.5576 14.1097 34.5938 15.1417 34.3618C16.1499 34.1337 17.2252 34.5957 17.8174 35.5118C17.9324 35.692 18.0934 35.8338 18.2257 35.9987L10.3673 43.6155ZM24.9532 35.9124C24.3448 36.2417 23.664 36.4142 22.9723 36.4142C22.2806 36.4142 21.5997 36.2417 20.9914 35.9124C20.3577 35.5713 19.8199 35.0763 19.4274 34.473C19.0227 33.8386 18.4658 33.3155 17.8074 32.9513C17.1489 32.587 16.4098 32.3933 15.6573 32.3877C14.6089 32.4432 13.6161 32.7921 12.5466 32.4145C11.8844 32.2169 11.2817 31.8576 10.7929 31.3691C10.3041 30.8806 9.94443 30.2782 9.74633 29.6162C9.53638 28.9113 9.50933 28.1647 9.66775 27.4465C10.0741 25.6544 9.27866 23.7627 7.68783 22.7353C6.51483 21.9782 5.72516 20.6097 5.74816 19.1627C5.72516 17.7252 6.51866 16.349 7.68783 15.5977C9.28058 14.5703 10.076 12.6786 9.66775 10.8865C9.50933 10.1683 9.53638 9.42165 9.74633 8.71683C9.94447 8.05457 10.3041 7.45194 10.7929 6.96315C11.2817 6.47435 11.8843 6.11471 12.5466 5.91658C13.2511 5.70861 13.9966 5.68159 14.7143 5.83799C16.5083 6.24624 18.4001 5.45083 19.4255 3.85808C19.8069 3.26583 20.3321 2.78091 20.9876 2.41866C21.5961 2.08986 22.2768 1.9177 22.9685 1.9177C23.6601 1.9177 24.3409 2.08986 24.9493 2.41866C25.6048 2.78283 26.1319 3.26774 26.5133 3.85808C27.5387 5.45083 29.4324 6.24049 31.2245 5.83799C31.942 5.67966 32.6881 5.7067 33.3923 5.91658C34.7148 6.29416 35.8149 7.39433 36.1944 8.71491C36.4053 9.45283 36.4321 10.1831 36.2711 10.8846C35.8647 12.6767 36.6621 14.5684 38.251 15.5957C39.4221 16.349 40.2156 17.7252 40.1907 19.1684C40.2156 20.604 39.4183 21.984 38.251 22.7334C36.6602 23.7588 35.8628 25.6525 36.2711 27.4446C36.4302 28.1461 36.4053 28.8763 36.1925 29.6123C35.9943 30.2749 35.6345 30.8777 35.1453 31.3666C34.6561 31.8554 34.053 32.2149 33.3903 32.4126C32.6543 32.6234 31.9241 32.6483 31.2226 32.4912C29.4305 32.0887 27.5368 32.8802 26.5114 34.4711C26.1281 35.0633 25.6029 35.5482 24.9474 35.9105L24.9532 35.9124ZM43.9818 37.8138C43.8823 38.1172 43.6959 38.3847 43.4459 38.5833C43.1959 38.7819 42.8931 38.9029 42.575 38.9312L39.654 39.2321C39.4407 39.2544 39.241 39.3475 39.0868 39.4965C38.9326 39.6456 38.8327 39.8419 38.803 40.0543L38.4427 42.6495C38.4032 42.9571 38.2775 43.2472 38.0801 43.4863C37.8827 43.7254 37.6217 43.9038 37.3272 44.0008C37.0345 44.104 36.7187 44.1223 36.4161 44.0534C36.1135 43.9846 35.8366 43.8314 35.6175 43.6117L27.7381 35.9757C27.8646 35.8185 28.0179 35.6824 28.1272 35.5118C28.7213 34.5957 29.8004 34.1337 30.8028 34.3618C31.8225 34.5918 32.8709 34.5592 33.9232 34.2564C35.7517 33.7332 37.2045 32.3225 37.8638 30.5477L43.5621 36.0657C43.7954 36.2836 43.9596 36.5653 44.0343 36.8757C44.1089 37.1862 44.0907 37.5136 43.9818 37.8138ZM31.4775 22.329L32.5336 17.5507C32.5873 17.3917 33.0243 15.9714 32.1598 14.7716C31.5101 13.8707 30.362 13.4146 28.7501 13.4146H24.8995L25.8272 10.5587C25.8974 10.2195 25.8934 9.86903 25.8157 9.53141C25.417 8.07283 23.9316 7.30808 22.5075 7.8965C22.0628 8.08241 21.6757 8.44275 21.2751 8.96025L17.6583 13.4146H17.252C15.1379 13.4146 13.4187 15.1338 13.4187 17.2479V22.9979C13.4187 25.112 15.1379 26.8312 17.252 26.8312H25.8674C27.1773 26.8375 28.4497 26.3937 29.4716 25.5741C30.4934 24.7546 31.2029 23.609 31.4813 22.329H31.4775ZM15.3334 22.9979V17.2479C15.3334 16.1918 16.194 15.3312 17.2501 15.3312V24.9146C16.194 24.9146 15.3334 24.054 15.3334 22.9979ZM25.8655 24.9146H19.1667V14.5972C19.1667 14.5972 23.0384 9.73458 23.0518 9.72116C23.4409 9.26691 24.1309 9.63875 23.922 10.2214L22.6704 14.0777C22.6232 14.2217 22.6107 14.3747 22.634 14.5244C22.6574 14.6741 22.7159 14.8161 22.8047 14.9388C22.8935 15.0615 23.0102 15.1614 23.1451 15.2303C23.28 15.2991 23.4293 15.3351 23.5808 15.3351H28.752C29.6797 15.3351 30.3371 15.5325 30.6016 15.8909C30.9063 16.303 30.7166 16.9527 30.6917 17.0447L29.6087 21.9169C29.4234 22.7701 28.9507 23.5338 28.2696 24.0802C27.5886 24.6266 26.7405 24.9225 25.8674 24.9184L25.8655 24.9146Z" fill="#EC813F"/>
</g>
<defs>
<clipPath id="clip0_2114_570">
<rect width="46" height="46" fill="white"/>
</clipPath>
</defs>
</svg>
