<svg width="46" height="46" viewBox="0 0 46 46" fill="none" xmlns="http://www.w3.org/2000/svg">
<g clip-path="url(#clip0_2114_577)">
<path d="M18.2083 23H16.2917V21.8136C16.2917 19.8873 17.5509 17.6276 19.0977 16.7766C19.7889 16.3942 20.3454 15.808 20.6912 15.0978C21.037 14.3875 21.1553 13.5879 21.03 12.808C20.9046 12.0281 20.5417 11.3058 19.9908 10.7397C19.4399 10.1736 18.7277 9.79117 17.9515 9.64467C17.3948 9.54106 16.822 9.56227 16.2745 9.70678C15.7269 9.85129 15.2183 10.1155 14.7852 10.4803C14.3559 10.8397 14.0109 11.2889 13.7744 11.7963C13.5379 12.3037 13.4158 12.8569 13.4167 13.4167H11.5C11.5 11.7127 12.2494 10.1066 13.5527 9.01217C14.8561 7.91775 16.5811 7.45583 18.2831 7.75867C19.4307 7.97261 20.4868 8.52892 21.3123 9.35441C22.1377 10.1799 22.6941 11.2359 22.908 12.3836C23.1195 13.5703 22.955 14.7934 22.4375 15.882C21.92 16.9706 21.0753 17.8704 20.0215 18.4556C19.0708 18.9788 18.2064 20.5773 18.2064 21.8136V23H18.2083ZM19.1667 26.8333C19.1667 26.325 18.9647 25.8375 18.6053 25.478C18.2458 25.1186 17.7583 24.9167 17.25 24.9167C16.7417 24.9167 16.2542 25.1186 15.8947 25.478C15.5353 25.8375 15.3333 26.325 15.3333 26.8333C15.3333 27.3417 15.5353 27.8292 15.8947 28.1886C16.2542 28.5481 16.7417 28.75 17.25 28.75C17.7583 28.75 18.2458 28.5481 18.6053 28.1886C18.9647 27.8292 19.1667 27.3417 19.1667 26.8333ZM38.3257 17.4033C38.3199 18.1355 38.2777 18.8581 38.1992 19.5711C40.0112 20.7997 41.4949 22.4532 42.5206 24.3874C43.5463 26.3215 44.0828 28.4774 44.0833 30.6667V44.0833H30.6667C28.4775 44.0823 26.3218 43.5456 24.3877 42.5199C22.4537 41.4943 20.8 40.0109 19.5711 38.1992C18.8581 38.2777 18.1355 38.3218 17.4033 38.3257C20.0579 42.9046 25.0029 46 30.6667 46H46V30.6667C46 25.0029 42.9046 20.0579 38.3257 17.4033ZM34.5 17.25C34.5 7.73758 26.7624 0 17.25 0C7.73758 0 0 7.73758 0 17.25V34.5H17.25C26.7624 34.5 34.5 26.7624 34.5 17.25ZM1.91667 17.25C1.91667 8.79558 8.79558 1.91667 17.25 1.91667C25.7044 1.91667 32.5833 8.79558 32.5833 17.25C32.5833 25.7044 25.7044 32.5833 17.25 32.5833H1.91667V17.25Z" fill="#EC813F"/>
</g>
<defs>
<clipPath id="clip0_2114_577">
<rect width="46" height="46" fill="white"/>
</clipPath>
</defs>
</svg>
