<svg width="46" height="46" viewBox="0 0 46 46" fill="none" xmlns="http://www.w3.org/2000/svg">
<path d="M46 29.7082C46 29.9624 45.899 30.2061 45.7193 30.3858C45.5396 30.5656 45.2958 30.6665 45.0417 30.6665H42.8049C41.3636 30.6665 39.9338 31.1419 38.7799 32.0082L27.1036 40.7635C25.9268 41.6761 24.4795 42.1704 22.9904 42.1683C21.5012 42.1662 20.0553 41.6679 18.8811 40.752L7.21817 32.0082C6.05575 31.1397 4.64423 30.6691 3.19317 30.6665H0.958333C0.704167 30.6665 0.460412 30.5656 0.280689 30.3858C0.100967 30.2061 0 29.9624 0 29.7082C0 29.454 0.100967 29.2103 0.280689 29.0306C0.460412 28.8508 0.704167 28.7499 0.958333 28.7499H3.19508C5.05042 28.7499 6.88658 29.3613 8.36817 30.473L20.0445 39.2283C21.7887 40.5891 24.2094 40.5834 25.9421 39.2398L37.6318 30.473C38.0439 30.1644 38.4828 29.896 38.9428 29.666L24.9914 19.2049L22.4787 21.6103C21.5833 22.5018 20.3708 23.0016 19.1073 22.9999C18.3436 22.9938 17.592 22.8083 16.9132 22.4584C16.2343 22.1084 15.6472 21.6039 15.1992 20.9855C13.8517 19.1148 14.1354 16.4008 15.8643 14.6739L21.6698 9.20754L19.78 7.48637C17.7368 5.62721 14.5456 5.29562 12.236 6.45329L7.79892 8.67279C6.60039 9.27012 5.2798 9.58173 3.94067 9.58321H0.958333C0.704167 9.58321 0.460412 9.48224 0.280689 9.30252C0.100967 9.12279 0 8.87904 0 8.62487C0 8.37071 0.100967 8.12695 0.280689 7.94723C0.460412 7.76751 0.704167 7.66654 0.958333 7.66654H3.94067C4.97567 7.66654 6.0145 7.42121 6.94025 6.95929L11.3773 4.73979C12.5694 4.14403 13.8837 3.83366 15.2164 3.83321C17.379 3.81857 19.4682 4.61689 21.0699 6.06996L23.0671 7.89079L24.8975 6.16771C27.4639 3.75271 31.4851 3.16812 34.6208 4.73979L39.0578 6.95929C39.9899 7.42291 41.0164 7.66495 42.0574 7.66654H45.0397C45.2939 7.66654 45.5377 7.76751 45.7174 7.94723C45.8971 8.12695 45.9981 8.37071 45.9981 8.62487C45.9981 8.87904 45.8971 9.12279 45.7174 9.30252C45.5377 9.48224 45.2939 9.58321 45.0397 9.58321H42.0574C40.7183 9.58153 39.3978 9.26992 38.1992 8.67279L33.7621 6.45329C31.3241 5.23046 28.2018 5.68662 26.2104 7.56304L17.1963 16.05C16.146 17.1004 15.9486 18.7487 16.7536 19.8661C17.2653 20.5753 18.0167 21.0046 18.8715 21.0736C19.7072 21.135 20.539 20.8398 21.137 20.2399L29.1199 12.5981C29.2109 12.5112 29.3181 12.443 29.4355 12.3974C29.5528 12.3519 29.678 12.33 29.8038 12.3328C29.9296 12.3357 30.0537 12.3633 30.1688 12.414C30.284 12.4648 30.388 12.5378 30.475 12.6288C30.562 12.7198 30.6302 12.827 30.6757 12.9443C30.7212 13.0617 30.7432 13.1869 30.7403 13.3127C30.7375 13.4385 30.7099 13.5626 30.6591 13.6777C30.6083 13.7929 30.5353 13.8969 30.4443 13.9839L26.3944 17.8613L41.1355 28.9166C41.6852 28.8064 42.2443 28.7506 42.8049 28.7499H45.0417C45.2958 28.7499 45.5396 28.8508 45.7193 29.0306C45.899 29.2103 46 29.454 46 29.7082Z" fill="#EC813F"/>
</svg>
