<svg width="46" height="46" viewBox="0 0 46 46" fill="none" xmlns="http://www.w3.org/2000/svg">
<g clip-path="url(#clip0_2114_591)">
<path d="M23 34.5C17.4053 34.5 12.9643 30.59 12.7784 30.4233L14.0549 28.9934C14.0952 29.0298 18.1508 32.5833 23 32.5833C27.8492 32.5833 31.9048 29.0298 31.9451 28.9934L33.2216 30.4233C33.0357 30.59 28.5947 34.5 23 34.5ZM46 23C46 10.3174 35.6826 0 23 0C10.3174 0 0 10.3174 0 23C0 35.6826 10.3174 46 23 46C35.6826 46 46 35.6826 46 23ZM44.0833 23C44.0833 34.6246 34.6246 44.0833 23 44.0833C11.3754 44.0833 1.91667 34.6246 1.91667 23C1.91667 11.3754 11.3754 1.91667 23 1.91667C34.6246 1.91667 44.0833 11.3754 44.0833 23ZM14.375 13.4167C11.6322 13.4167 9.58333 17.4627 9.58333 21.0833H11.5C11.5 18.3425 13.0046 15.3333 14.375 15.3333C15.7454 15.3333 17.25 18.3425 17.25 21.0833H19.1667C19.1667 17.4627 17.1178 13.4167 14.375 13.4167ZM31.625 13.4167C28.8822 13.4167 26.8333 17.4627 26.8333 21.0833H28.75C28.75 18.3425 30.2546 15.3333 31.625 15.3333C32.9954 15.3333 34.5 18.3425 34.5 21.0833H36.4167C36.4167 17.4627 34.3677 13.4167 31.625 13.4167Z" fill="#EC813F"/>
</g>
<defs>
<clipPath id="clip0_2114_591">
<rect width="46" height="46" fill="white"/>
</clipPath>
</defs>
</svg>
