<svg width="118" height="25" viewBox="0 0 118 25" fill="none" xmlns="http://www.w3.org/2000/svg">
<path d="M104.786 24.1592V5.59668H108.358V7.86426H108.519C108.678 7.50098 108.907 7.13184 109.208 6.75684C109.514 6.37598 109.911 6.05957 110.398 5.80762C110.891 5.5498 111.504 5.4209 112.235 5.4209C113.187 5.4209 114.066 5.67871 114.871 6.19434C115.676 6.7041 116.319 7.47461 116.801 8.50586C117.283 9.53125 117.524 10.8174 117.524 12.3643C117.524 13.8701 117.288 15.1416 116.818 16.1787C116.353 17.21 115.718 17.9922 114.913 18.5254C114.114 19.0527 113.218 19.3164 112.226 19.3164C111.524 19.3164 110.925 19.1963 110.432 18.9561C109.945 18.7158 109.545 18.4141 109.233 18.0508C108.922 17.6816 108.684 17.3096 108.519 16.9346H108.409V24.1592H104.786ZM108.332 12.3467C108.332 13.1494 108.44 13.8496 108.655 14.4473C108.871 15.0449 109.182 15.5107 109.591 15.8447C109.999 16.1729 110.495 16.3369 111.079 16.3369C111.668 16.3369 112.167 16.1699 112.575 15.8359C112.983 15.4961 113.292 15.0273 113.502 14.4297C113.717 13.8262 113.825 13.1318 113.825 12.3467C113.825 11.5674 113.72 10.8818 113.51 10.29C113.301 9.69824 112.992 9.23535 112.584 8.90137C112.175 8.56738 111.674 8.40039 111.079 8.40039C110.489 8.40039 109.99 8.56152 109.582 8.88379C109.18 9.20605 108.871 9.66308 108.655 10.2549C108.44 10.8467 108.332 11.5439 108.332 12.3467Z" fill="#393939"/>
<path d="M98.267 13.3486V5.59668H101.889V19.0967H98.4115V16.6445H98.2755C97.9807 17.4355 97.4904 18.0713 96.8045 18.5518C96.1242 19.0322 95.2938 19.2725 94.3131 19.2725C93.4401 19.2725 92.6721 19.0674 92.0088 18.6572C91.3456 18.2471 90.8269 17.6641 90.4528 16.9082C90.0843 16.1523 89.8973 15.2471 89.8916 14.1924V5.59668H93.5138V13.5244C93.5195 14.3213 93.7264 14.9512 94.1346 15.4141C94.5427 15.877 95.0897 16.1084 95.7756 16.1084C96.2121 16.1084 96.6202 16.0059 97 15.8008C97.3798 15.5898 97.6859 15.2793 97.9183 14.8691C98.1564 14.459 98.2726 13.9521 98.267 13.3486Z" fill="#393939"/>
<path d="M81.1081 19.3604C79.7873 19.3604 78.6451 19.0703 77.6815 18.4902C76.7235 17.9043 75.9837 17.0898 75.4622 16.0469C74.9407 14.998 74.6799 13.7822 74.6799 12.3994C74.6799 11.0049 74.9407 9.78613 75.4622 8.74316C75.9837 7.69434 76.7235 6.87988 77.6815 6.2998C78.6451 5.71387 79.7873 5.4209 81.1081 5.4209C82.4289 5.4209 83.5683 5.71387 84.5263 6.2998C85.49 6.87988 86.2325 7.69434 86.7541 8.74316C87.2756 9.78613 87.5363 11.0049 87.5363 12.3994C87.5363 13.7822 87.2756 14.998 86.7541 16.0469C86.2325 17.0898 85.49 17.9043 84.5263 18.4902C83.5683 19.0703 82.4289 19.3604 81.1081 19.3604ZM81.1251 16.46C81.726 16.46 82.2277 16.2842 82.6301 15.9326C83.0326 15.5752 83.3359 15.0889 83.54 14.4736C83.7497 13.8584 83.8546 13.1582 83.8546 12.373C83.8546 11.5879 83.7497 10.8877 83.54 10.2725C83.3359 9.65723 83.0326 9.1709 82.6301 8.81348C82.2277 8.45605 81.726 8.27734 81.1251 8.27734C80.5186 8.27734 80.0084 8.45605 79.5946 8.81348C79.1865 9.1709 78.8775 9.65723 78.6678 10.2725C78.4637 10.8877 78.3617 11.5879 78.3617 12.373C78.3617 13.1582 78.4637 13.8584 78.6678 14.4736C78.8775 15.0889 79.1865 15.5752 79.5946 15.9326C80.0084 16.2842 80.5186 16.46 81.1251 16.46Z" fill="#393939"/>
<path d="M66.0176 19.0967V5.59668H69.5293V7.95215H69.6653C69.9034 7.11426 70.303 6.48144 70.8642 6.05371C71.4254 5.62012 72.0716 5.40332 72.8029 5.40332C72.9843 5.40332 73.1799 5.41504 73.3896 5.43848C73.5993 5.46191 73.7836 5.49414 73.9423 5.53516V8.85742C73.7722 8.80469 73.537 8.75781 73.2365 8.7168C72.9361 8.67578 72.6612 8.65527 72.4118 8.65527C71.8789 8.65527 71.4027 8.77539 70.9833 9.01562C70.5695 9.25 70.2407 9.57812 69.9969 10C69.7589 10.4219 69.6398 10.9082 69.6398 11.459V19.0967H66.0176Z" fill="#393939"/>
<path d="M59.417 6.91504C59.298 6.48731 59.1308 6.10937 58.9153 5.78125C58.6999 5.44727 58.4363 5.16602 58.1246 4.9375C57.8185 4.70313 57.467 4.52441 57.0702 4.40137C56.6791 4.27832 56.2454 4.2168 55.7693 4.2168C54.8793 4.2168 54.097 4.44531 53.4225 4.90234C52.7536 5.35937 52.2321 6.02441 51.8579 6.89746C51.4838 7.76465 51.2967 8.82519 51.2967 10.0791C51.2967 11.333 51.481 12.3994 51.8494 13.2783C52.2179 14.1572 52.7394 14.8281 53.414 15.291C54.0885 15.748 54.885 15.9766 55.8033 15.9766C56.6366 15.9766 57.348 15.8242 57.9375 15.5195C58.5327 15.209 58.9862 14.7725 59.298 14.21C59.6154 13.6475 59.7741 12.9824 59.7741 12.2148L60.5224 12.3291H56.0329V9.46387H63.3199V11.7314C63.3199 13.3135 62.9967 14.6729 62.3505 15.8096C61.7043 16.9404 60.8143 17.8135 59.6806 18.4287C58.5469 19.0381 57.2488 19.3428 55.7863 19.3428C54.1537 19.3428 52.7196 18.9707 51.4838 18.2266C50.248 17.4766 49.2844 16.4131 48.5928 15.0361C47.9069 13.6533 47.564 12.0127 47.564 10.1143C47.564 8.65527 47.768 7.35449 48.1762 6.21191C48.59 5.06348 49.1682 4.09082 49.9108 3.29395C50.6534 2.49707 51.5178 1.89062 52.5042 1.47461C53.4905 1.05859 54.559 0.850586 55.7098 0.850586C56.6961 0.850586 57.6144 1 58.4647 1.29883C59.315 1.5918 60.0689 2.00781 60.7265 2.54688C61.3897 3.08594 61.931 3.72754 62.3505 4.47168C62.77 5.20996 63.0393 6.02441 63.1583 6.91504H59.417Z" fill="#393939"/>
<path d="M44.9006 1.09668V19.0967H41.2783V1.09668H44.9006Z" fill="#393939"/>
<path d="M26.4366 19.0967H22.4912L28.5028 1.09668H33.2474L39.2504 19.0967H35.3051L30.9431 5.20996H30.8071L26.4366 19.0967ZM26.19 12.0215H35.5092V14.9922H26.19V12.0215Z" fill="#393939"/>
<path d="M16.8431 19.0967V5.59668H20.4653V19.0967H16.8431ZM18.6627 3.85645C18.1242 3.85645 17.6622 3.67188 17.2767 3.30273C16.8969 2.92773 16.707 2.47949 16.707 1.95801C16.707 1.44238 16.8969 1 17.2767 0.63086C17.6622 0.25586 18.1242 0.0683594 18.6627 0.0683594C19.2012 0.0683594 19.6604 0.25586 20.0402 0.63086C20.4256 1 20.6184 1.44238 20.6184 1.95801C20.6184 2.47949 20.4256 2.92773 20.0402 3.30273C19.6604 3.67188 19.2012 3.85645 18.6627 3.85645Z" fill="#393939"/>
<path d="M10.6678 6.27344C10.5998 5.56445 10.3079 5.01367 9.79203 4.62109C9.27619 4.22851 8.57612 4.03223 7.69182 4.03223C7.09094 4.03223 6.5836 4.12012 6.1698 4.2959C5.75599 4.46582 5.43855 4.70312 5.21747 5.00781C5.00206 5.3125 4.89436 5.6582 4.89436 6.04492C4.88302 6.36719 4.94821 6.64844 5.08993 6.88867C5.23731 7.12891 5.43855 7.33691 5.69363 7.5127C5.94872 7.68262 6.24349 7.83203 6.57794 7.96094C6.91238 8.08399 7.26951 8.18945 7.6493 8.27734L9.21384 8.66406C9.97343 8.83984 10.6707 9.07422 11.3056 9.36719C11.9404 9.66016 12.4903 10.0205 12.9551 10.4482C13.4199 10.876 13.7799 11.3799 14.035 11.96C14.2957 12.54 14.429 13.2051 14.4346 13.9551C14.429 15.0566 14.1569 16.0117 13.6183 16.8203C13.0855 17.623 12.3146 18.2471 11.3056 18.6924C10.3022 19.1318 9.09196 19.3516 7.67481 19.3516C6.269 19.3516 5.04458 19.1289 4.00155 18.6836C2.9642 18.2383 2.15359 17.5791 1.56972 16.7061C0.991526 15.8271 0.688255 14.7402 0.659912 13.4453H4.22263C4.26231 14.0488 4.42953 14.5527 4.7243 14.957C5.02474 15.3555 5.42437 15.6572 5.92321 15.8623C6.42772 16.0615 6.99741 16.1611 7.6323 16.1611C8.25584 16.1611 8.79719 16.0674 9.25635 15.8799C9.72118 15.6924 10.0811 15.4316 10.3362 15.0977C10.5913 14.7637 10.7189 14.3799 10.7189 13.9463C10.7189 13.542 10.6026 13.2021 10.3702 12.9268C10.1435 12.6514 9.80904 12.417 9.36689 12.2236C8.93041 12.0303 8.39472 11.8545 7.75984 11.6963L5.86369 11.2041C4.39552 10.835 3.23629 10.2578 2.386 9.47266C1.53571 8.6875 1.1134 7.62988 1.11907 6.2998C1.1134 5.20996 1.394 4.25781 1.96086 3.44336C2.53339 2.62891 3.31849 1.99316 4.31616 1.53613C5.31384 1.0791 6.44756 0.850586 7.71733 0.850586C9.00977 0.850586 10.1378 1.0791 11.1015 1.53613C12.0708 1.99316 12.8247 2.62891 13.3633 3.44336C13.9018 4.25781 14.1795 5.20117 14.1965 6.27344H10.6678Z" fill="#393939"/>
</svg>
