<svg width="178" height="36" viewBox="0 0 178 36" fill="none" xmlns="http://www.w3.org/2000/svg">
<path d="M158.01 35.4521V8.63965H163.413V11.915H163.657C163.897 11.3903 164.245 10.8571 164.699 10.3154C165.162 9.7653 165.763 9.30827 166.5 8.94434C167.246 8.57194 168.172 8.38574 169.279 8.38574C170.719 8.38574 172.048 8.75814 173.266 9.50293C174.484 10.2393 175.457 11.3522 176.186 12.8418C176.915 14.3229 177.28 16.1807 177.28 18.415C177.28 20.5902 176.924 22.4268 176.212 23.9248C175.509 25.4144 174.548 26.5443 173.331 27.3145C172.121 28.0762 170.766 28.457 169.266 28.457C168.202 28.457 167.298 28.2835 166.552 27.9365C165.814 27.5895 165.209 27.1536 164.738 26.6289C164.266 26.0957 163.906 25.5583 163.657 25.0166H163.49V35.4521H158.01ZM163.374 18.3896C163.374 19.5492 163.537 20.5605 163.863 21.4238C164.189 22.2871 164.661 22.96 165.278 23.4424C165.896 23.9163 166.646 24.1533 167.529 24.1533C168.421 24.1533 169.176 23.9121 169.793 23.4297C170.411 22.9388 170.878 22.2617 171.195 21.3984C171.521 20.5267 171.684 19.5238 171.684 18.3896C171.684 17.264 171.525 16.2738 171.208 15.4189C170.891 14.5641 170.423 13.8955 169.806 13.4131C169.189 12.9307 168.43 12.6895 167.529 12.6895C166.637 12.6895 165.883 12.9222 165.265 13.3877C164.656 13.8532 164.189 14.5133 163.863 15.3682C163.537 16.223 163.374 17.2301 163.374 18.3896Z" fill="white"/>
<path d="M148.147 19.8369V8.63965H153.627V28.1396H148.366V24.5977H148.16C147.714 25.7402 146.973 26.6585 145.935 27.3525C144.906 28.0465 143.65 28.3936 142.166 28.3936C140.845 28.3936 139.683 28.0973 138.68 27.5049C137.677 26.9124 136.892 26.0703 136.326 24.9785C135.769 23.8867 135.486 22.5791 135.477 21.0557V8.63965H140.957V20.0908C140.965 21.2419 141.278 22.1517 141.896 22.8203C142.513 23.4889 143.341 23.8232 144.378 23.8232C145.039 23.8232 145.656 23.6751 146.231 23.3789C146.805 23.0742 147.268 22.6257 147.62 22.0332C147.98 21.4408 148.156 20.7087 148.147 19.8369Z" fill="white"/>
<path d="M122.189 28.5205C120.191 28.5205 118.463 28.1016 117.005 27.2637C115.556 26.4173 114.437 25.2409 113.648 23.7344C112.859 22.2194 112.464 20.4632 112.464 18.4658C112.464 16.4515 112.859 14.6911 113.648 13.1846C114.437 11.6696 115.556 10.4932 117.005 9.65527C118.463 8.80892 120.191 8.38574 122.189 8.38574C124.187 8.38574 125.911 8.80892 127.36 9.65527C128.818 10.4932 129.941 11.6696 130.73 13.1846C131.519 14.6911 131.914 16.4515 131.914 18.4658C131.914 20.4632 131.519 22.2194 130.73 23.7344C129.941 25.2409 128.818 26.4173 127.36 27.2637C125.911 28.1016 124.187 28.5205 122.189 28.5205ZM122.215 24.3311C123.124 24.3311 123.883 24.0771 124.492 23.5693C125.1 23.0531 125.559 22.3506 125.868 21.4619C126.185 20.5732 126.344 19.5618 126.344 18.4277C126.344 17.2936 126.185 16.2822 125.868 15.3936C125.559 14.5049 125.1 13.8024 124.492 13.2861C123.883 12.7699 123.124 12.5117 122.215 12.5117C121.297 12.5117 120.525 12.7699 119.899 13.2861C119.282 13.8024 118.815 14.5049 118.497 15.3936C118.189 16.2822 118.034 17.2936 118.034 18.4277C118.034 19.5618 118.189 20.5732 118.497 21.4619C118.815 22.3506 119.282 23.0531 119.899 23.5693C120.525 24.0771 121.297 24.3311 122.215 24.3311Z" fill="white"/>
<path d="M99.3599 28.1396V8.63965H104.672V12.042H104.878C105.238 10.8317 105.843 9.91764 106.692 9.2998C107.541 8.6735 108.519 8.36035 109.625 8.36035C109.899 8.36035 110.195 8.37728 110.512 8.41113C110.83 8.44499 111.108 8.49154 111.349 8.55078V13.3496C111.091 13.2734 110.735 13.2057 110.281 13.1465C109.826 13.0872 109.41 13.0576 109.033 13.0576C108.227 13.0576 107.507 13.2311 106.872 13.5781C106.246 13.9167 105.749 14.3906 105.38 15C105.02 15.6094 104.84 16.3118 104.84 17.1074V28.1396H99.3599Z" fill="white"/>
<path d="M89.3744 10.5439C89.1943 9.92611 88.9413 9.38021 88.6155 8.90625C88.2896 8.42383 87.8908 8.01758 87.4192 7.6875C86.9561 7.34896 86.4244 7.09082 85.8241 6.91309C85.2324 6.73535 84.5764 6.64649 83.856 6.64649C82.5097 6.64649 81.3262 6.97656 80.3057 7.63672C79.2938 8.29687 78.5049 9.25749 77.9389 10.5186C77.3729 11.7712 77.0899 13.3031 77.0899 15.1143C77.0899 16.9255 77.3686 18.4658 77.926 19.7354C78.4834 21.0049 79.2724 21.974 80.2929 22.6426C81.3134 23.3027 82.5182 23.6328 83.9075 23.6328C85.1681 23.6328 86.2443 23.4128 87.1362 22.9727C88.0366 22.5241 88.7227 21.8936 89.1943 21.0811C89.6746 20.2686 89.9147 19.3079 89.9147 18.1992L91.0467 18.3643H84.2548V14.2256H95.2787V17.501C95.2787 19.7861 94.7899 21.7497 93.8123 23.3916C92.8347 25.0251 91.4883 26.2861 89.7732 27.1748C88.0581 28.055 86.0943 28.4951 83.8818 28.4951C81.412 28.4951 79.2424 27.9577 77.3729 26.8828C75.5034 25.7995 74.0456 24.2633 72.9993 22.2744C71.9617 20.277 71.4429 17.9072 71.4429 15.165C71.4429 13.0576 71.7516 11.1787 72.369 9.52832C72.9951 7.86947 73.8698 6.46452 74.9932 5.31348C76.1166 4.16243 77.4243 3.28646 78.9165 2.68555C80.4086 2.08463 82.0251 1.78418 83.766 1.78418C85.2581 1.78418 86.6474 2 87.9337 2.43164C89.2201 2.85482 90.3606 3.45573 91.3554 4.23438C92.3587 5.01302 93.1777 5.93978 93.8123 7.01465C94.4469 8.08105 94.8542 9.25749 95.0343 10.5439H89.3744Z" fill="white"/>
<path d="M67.4134 2.13965V28.1396H61.9336V2.13965H67.4134Z" fill="white"/>
<path d="M39.4808 28.1396H33.5122L42.6066 2.13965H49.7844L58.8659 28.1396H52.8973L46.2984 8.08106H46.0926L39.4808 28.1396ZM39.1078 17.9199H53.206V22.2109H39.1078V17.9199Z" fill="white"/>
<path d="M24.9675 28.1396V8.63965H30.4473V28.1396H24.9675ZM27.7203 6.12598C26.9056 6.12598 26.2067 5.85938 25.6236 5.32617C25.049 4.78451 24.7617 4.13704 24.7617 3.38379C24.7617 2.639 25.049 2 25.6236 1.4668C26.2067 0.925131 26.9056 0.654297 27.7203 0.654297C28.535 0.654297 29.2296 0.925131 29.8042 1.4668C30.3873 2 30.6789 2.639 30.6789 3.38379C30.6789 4.13704 30.3873 4.78451 29.8042 5.32617C29.2296 5.85938 28.535 6.12598 27.7203 6.12598Z" fill="white"/>
<path d="M15.6255 9.61719C15.5226 8.5931 15.081 7.79753 14.3006 7.23047C13.5202 6.66341 12.4612 6.37988 11.1234 6.37988C10.2143 6.37988 9.44683 6.50684 8.82082 6.76074C8.1948 7.00619 7.71457 7.34896 7.38012 7.78906C7.05425 8.22917 6.89131 8.72852 6.89131 9.28711C6.87416 9.7526 6.97278 10.1589 7.18717 10.5059C7.41013 10.8529 7.71457 11.1533 8.10047 11.4072C8.48637 11.6527 8.9323 11.8685 9.43826 12.0547C9.94422 12.2324 10.4845 12.3848 11.059 12.5117L13.4259 13.0703C14.575 13.3242 15.6298 13.6628 16.5903 14.0859C17.5508 14.5091 18.3826 15.0296 19.0858 15.6475C19.789 16.2653 20.3335 16.9932 20.7194 17.8311C21.1139 18.6689 21.3154 19.6296 21.324 20.7129C21.3154 22.304 20.9038 23.6836 20.0891 24.8516C19.283 26.0111 18.1167 26.9124 16.5903 27.5557C15.0724 28.1904 13.2415 28.5078 11.0976 28.5078C8.97089 28.5078 7.11856 28.1862 5.54066 27.543C3.97133 26.8997 2.74502 25.9476 1.86173 24.6865C0.987023 23.417 0.52823 21.847 0.485352 19.9766H5.8751C5.93513 20.8483 6.18811 21.5762 6.63404 22.1602C7.08855 22.7357 7.69313 23.1715 8.44778 23.4678C9.21101 23.7555 10.0729 23.8994 11.0333 23.8994C11.9766 23.8994 12.7956 23.764 13.4902 23.4932C14.1934 23.2223 14.738 22.8457 15.1239 22.3633C15.5098 21.8809 15.7027 21.3265 15.7027 20.7002C15.7027 20.1162 15.5269 19.6253 15.1753 19.2275C14.8323 18.8298 14.3263 18.4912 13.6574 18.2119C12.9971 17.9326 12.1867 17.6787 11.2263 17.4502L8.35774 16.7393C6.13666 16.2061 4.38295 15.3724 3.09662 14.2383C1.81028 13.1042 1.1714 11.5765 1.17997 9.65527C1.1714 8.08105 1.59589 6.70573 2.45345 5.5293C3.31958 4.35286 4.5073 3.43457 6.0166 2.77441C7.5259 2.11426 9.24102 1.78418 11.162 1.78418C13.1172 1.78418 14.8237 2.11426 16.2816 2.77441C17.748 3.43457 18.8885 4.35286 19.7032 5.5293C20.5179 6.70573 20.9381 8.06836 20.9638 9.61719H15.6255Z" fill="white"/>
</svg>
